<svg xmlns="http://www.w3.org/2000/svg" viewBox="0 0 32 32" fill="none">
  <rect width="32" height="32" rx="6" fill="#f5f0e8"/>
  <!-- Sign scaled: original 60×100 → 32×32, scale=0.32, offset x=6.2 y=0 -->
  <g transform="translate(6.2,0) scale(0.32)">
    <polygon points="14,96 46,96 38,22 22,22" fill="none" stroke="#1c1a14" stroke-width="0.8" opacity="0.15"/>
    <rect x="28.5" y="74" width="3"   height="13" rx="1.5" fill="#b8923a" opacity="0.90"/>
    <rect x="28.8" y="55" width="2.4" height="11" rx="1.2" fill="#b8923a" opacity="0.65"/>
    <rect x="29"   y="39" width="2"   height="9"  rx="1"   fill="#b8923a" opacity="0.42"/>
    <rect x="29.2" y="27" width="1.6" height="7"  rx="0.8" fill="#b8923a" opacity="0.26"/>
    <g transform="translate(30,18)">
      <polygon points="0,-11 3,-3 11,0 3,3 0,11 -3,3 -11,0 -3,-3" fill="#b8923a"/>
      <polygon points="0,-11 3,-3 11,0 3,3 0,11 -3,3 -11,0 -3,-3" fill="#b8923a" transform="rotate(45)" opacity="0.38"/>
    </g>
  </g>
</svg>
