<svg xmlns="http://www.w3.org/2000/svg" viewBox="0 0 360 110" fill="none">
  <rect width="360" height="110" fill="#1c1f26"/>
  <!-- Sign: road + star (icon zone 0-60 x, 0-100 y, star center at 30,18) -->
  <polygon points="14,100 46,100 38,22 22,22" fill="none" stroke="#c8a96e" stroke-width="0.8" opacity="0.22"/>
  <rect x="28.5" y="78" width="3"   height="13" rx="1.5" fill="#c8a96e" opacity="0.90"/>
  <rect x="28.8" y="58" width="2.4" height="11" rx="1.2" fill="#c8a96e" opacity="0.65"/>
  <rect x="29"   y="42" width="2"   height="9"  rx="1"   fill="#c8a96e" opacity="0.42"/>
  <rect x="29.2" y="30" width="1.6" height="7"  rx="0.8" fill="#c8a96e" opacity="0.26"/>
  <g transform="translate(30,18)">
    <polygon points="0,-11 3,-3 11,0 3,3 0,11 -3,3 -11,0 -3,-3" fill="#c8a96e"/>
    <polygon points="0,-11 3,-3 11,0 3,3 0,11 -3,3 -11,0 -3,-3" fill="#c8a96e" transform="rotate(45)" opacity="0.38"/>
    <circle cx="0" cy="0" r="16" fill="none" stroke="#c8a96e" stroke-width="0.5" opacity="0.22"/>
  </g>
  <!-- Wordmark -->
  <text x="75" y="48" font-family="Manrope,system-ui,sans-serif" font-weight="800" font-size="40" fill="#f5f0e8" letter-spacing="5">TURAN</text>
  <text x="75" y="88" font-family="Manrope,system-ui,sans-serif" font-weight="800" font-size="40" fill="#c8a96e" letter-spacing="5">LOGIX</text>
  <!-- Divider -->
  <line x1="75" y1="96" x2="356" y2="96" stroke="#c8a96e" stroke-width="0.5" opacity="0.2"/>
  <!-- Tagline -->
  <text x="76" y="108" font-family="Manrope,system-ui,sans-serif" font-weight="500" font-size="9" fill="#c8a96e" opacity="0.6" letter-spacing="2">ЦЕНТРАЛЬНАЯ АЗИЯ · РОССИЯ · КИТАЙ</text>
</svg>
