<<<<<<< HEAD
<svg xmlns="http://www.w3.org/2000/svg" viewBox="0 0 360 110" fill="none">
  <rect width="360" height="110" fill="#ffffff"/>
  <polygon points="14,100 46,100 38,22 22,22" fill="none" stroke="#222222" stroke-width="0.8" opacity="0.40"/>
  <rect x="28.5" y="78" width="3"   height="13" rx="1.5" fill="#222222" opacity="0.85"/>
  <rect x="28.8" y="58" width="2.4" height="11" rx="1.2" fill="#222222" opacity="0.60"/>
  <rect x="29"   y="42" width="2"   height="9"  rx="1"   fill="#222222" opacity="0.38"/>
  <rect x="29.2" y="30" width="1.6" height="7"  rx="0.8" fill="#222222" opacity="0.22"/>
  <g transform="translate(30,18)">
    <polygon points="0,-11 3,-3 11,0 3,3 0,11 -3,3 -11,0 -3,-3" fill="#111111"/>
    <polygon points="0,-11 3,-3 11,0 3,3 0,11 -3,3 -11,0 -3,-3" fill="#111111" transform="rotate(45)" opacity="0.30"/>
    <circle cx="0" cy="0" r="16" fill="none" stroke="#111111" stroke-width="0.5" opacity="0.20"/>
=======
<svg xmlns="http://www.w3.org/2000/svg" viewBox="0 0 320 90" fill="none">
  <!-- Sign: road + star -->
  <polygon points="16,88 44,88 36,10 24,10" fill="none" stroke="#222222" stroke-width="0.8" opacity="0.22"/>
  <rect x="28.5" y="68" width="3"   height="12" rx="1.5" fill="#222222" opacity="0.9"/>
  <rect x="28.8" y="50" width="2.4" height="10" rx="1.2" fill="#222222" opacity="0.65"/>
  <rect x="29"   y="35" width="2"   height="8"  rx="1"   fill="#222222" opacity="0.42"/>
  <rect x="29.2" y="23" width="1.6" height="6"  rx="0.8" fill="#222222" opacity="0.26"/>
  <g transform="translate(30,18)">
    <polygon points="0,-11 3,-3 11,0 3,3 0,11 -3,3 -11,0 -3,-3" fill="#222222"/>
    <polygon points="0,-11 3,-3 11,0 3,3 0,11 -3,3 -11,0 -3,-3" fill="#222222" transform="rotate(45)" opacity="0.38"/>
    <circle cx="0" cy="0" r="17" fill="none" stroke="#222222" stroke-width="0.5" opacity="0.22"/>
>>>>>>> 732fc7a7e286ee7a418bc689ae69867af76a6918
  </g>
  <text x="75" y="48" font-family="Manrope,system-ui,sans-serif" font-weight="800" font-size="40" fill="#1a1a1a" letter-spacing="5">TURAN</text>
  <text x="75" y="88" font-family="Manrope,system-ui,sans-serif" font-weight="800" font-size="40" fill="#555555" letter-spacing="5">LOGIX</text>
  <line x1="75" y1="96" x2="356" y2="96" stroke="#aaaaaa" stroke-width="0.5" opacity="0.5"/>
  <text x="76" y="108" font-family="Manrope,system-ui,sans-serif" font-weight="500" font-size="9" fill="#666666" letter-spacing="2">ЦЕНТРАЛЬНАЯ АЗИЯ · РОССИЯ · КИТАЙ</text>
</svg>
