<svg xmlns="http://www.w3.org/2000/svg" viewBox="0 0 240 240" fill="none">
  <circle cx="120" cy="120" r="116" fill="#ffffff" stroke="#111111" stroke-width="1.5"/>
  <circle cx="120" cy="120" r="100" fill="none" stroke="#111111" stroke-width="0.4" opacity="0.35"/>
  <path id="sb-top" d="M 28,108 A 96,96 0 0,1 212,108" fill="none"/>
  <text font-family="Manrope,system-ui,sans-serif" font-size="9" font-weight="600" fill="#222222" letter-spacing="2.5" opacity="0.80">
    <textPath href="#sb-top" startOffset="7%">ГРУЗОВЫЕ ПЕРЕВОЗКИ · FREIGHT</textPath>
  </text>
  <path id="sb-bot" d="M 24,128 A 96,96 0 0,0 216,128" fill="none"/>
  <text font-family="Manrope,system-ui,sans-serif" font-size="8.5" font-weight="600" fill="#444444" letter-spacing="2" opacity="0.75">
    <textPath href="#sb-bot" startOffset="9%">ЦА · РОССИЯ · КИТАЙ · KZ</textPath>
  </text>
  <polygon points="106,168 134,168 126,96 114,96" fill="none" stroke="#222222" stroke-width="0.8" opacity="0.38"/>
  <rect x="118.5" y="147" width="3"   height="12" rx="1.5" fill="#222222" opacity="0.85"/>
  <rect x="118.8" y="129" width="2.4" height="10" rx="1.2" fill="#222222" opacity="0.60"/>
  <rect x="119"   y="114" width="2"   height="8"  rx="1"   fill="#222222" opacity="0.38"/>
  <rect x="119.2" y="103" width="1.6" height="6"  rx="0.8" fill="#222222" opacity="0.22"/>
  <g transform="translate(120,82)">
    <polygon points="0,-11 3,-3 11,0 3,3 0,11 -3,3 -11,0 -3,-3" fill="#111111"/>
    <polygon points="0,-11 3,-3 11,0 3,3 0,11 -3,3 -11,0 -3,-3" fill="#111111" transform="rotate(45)" opacity="0.30"/>
    <circle cx="0" cy="0" r="14" fill="none" stroke="#111111" stroke-width="0.5" opacity="0.20"/>
  </g>
  <text x="120" y="192" font-family="Manrope,system-ui,sans-serif" font-weight="800" font-size="18" fill="#1a1a1a" letter-spacing="3" text-anchor="middle">TURAN</text>
  <text x="120" y="213" font-family="Manrope,system-ui,sans-serif" font-weight="800" font-size="18" fill="#555555" letter-spacing="3" text-anchor="middle">LOGIX</text>
</svg>
