<svg xmlns="http://www.w3.org/2000/svg" viewBox="0 0 60 100" fill="none">
  <polygon points="14,96 46,96 38,22 22,22" fill="none" stroke="#c8a96e" stroke-width="0.8" opacity="0.22"/>
  <rect x="28.5" y="74" width="3"   height="13" rx="1.5" fill="#c8a96e" opacity="0.90"/>
  <rect x="28.8" y="55" width="2.4" height="11" rx="1.2" fill="#c8a96e" opacity="0.65"/>
  <rect x="29"   y="39" width="2"   height="9"  rx="1"   fill="#c8a96e" opacity="0.42"/>
  <rect x="29.2" y="27" width="1.6" height="7"  rx="0.8" fill="#c8a96e" opacity="0.26"/>
  <g transform="translate(30,18)">
    <polygon points="0,-11 3,-3 11,0 3,3 0,11 -3,3 -11,0 -3,-3" fill="#c8a96e"/>
    <polygon points="0,-11 3,-3 11,0 3,3 0,11 -3,3 -11,0 -3,-3" fill="#c8a96e" transform="rotate(45)" opacity="0.38"/>
    <circle cx="0" cy="0" r="16" fill="none" stroke="#c8a96e" stroke-width="0.5" opacity="0.22"/>
  </g>
</svg>
